<svg width="251" height="44" viewBox="0 0 251 44" fill="none" xmlns="http://www.w3.org/2000/svg">
<ellipse cx="151.875" cy="37.875" rx="13.875" ry="4.125" fill="url(#paint0_radial_42_241)" fill-opacity="0.7"/>
<path d="M151.875 20.6063C150.845 20.6063 149.857 20.2013 149.129 19.4804C148.4 18.7596 147.991 17.7819 147.991 16.7625C147.991 15.7431 148.4 14.7654 149.129 14.0446C149.857 13.3237 150.845 12.9188 151.875 12.9188C152.905 12.9188 153.893 13.3237 154.621 14.0446C155.35 14.7654 155.759 15.7431 155.759 16.7625C155.759 17.2673 155.658 17.7671 155.463 18.2334C155.268 18.6998 154.982 19.1235 154.621 19.4804C154.261 19.8374 153.833 20.1205 153.361 20.3137C152.89 20.5068 152.385 20.6063 151.875 20.6063ZM151.875 6C148.991 6 146.225 7.1339 144.185 9.15226C142.146 11.1706 141 13.9081 141 16.7625C141 24.8344 151.875 36.75 151.875 36.75C151.875 36.75 162.75 24.8344 162.75 16.7625C162.75 13.9081 161.604 11.1706 159.565 9.15226C157.525 7.1339 154.759 6 151.875 6Z" fill="#132766"/>
<path d="M2.27557 35V8.81818H19.6108V13.3821H7.81108V19.6207H18.4602V24.1847H7.81108V35H2.27557ZM32.2897 8.81818V35H26.7542V8.81818H32.2897ZM62.1632 8.81818V35H57.3819L45.9913 18.5213H45.7995V35H40.264V8.81818H45.122L56.4231 25.2841H56.6532V8.81818H62.1632ZM79.4379 35H70.1567V8.81818H79.5146C82.1481 8.81818 84.4152 9.34233 86.3158 10.3906C88.2163 11.4304 89.678 12.9261 90.7007 14.8778C91.7319 16.8295 92.2476 19.1648 92.2476 21.8835C92.2476 24.6108 91.7319 26.9545 90.7007 28.9148C89.678 30.875 88.2078 32.3793 86.2902 33.4276C84.3811 34.4759 82.097 35 79.4379 35ZM75.6922 30.2571H79.2078C80.8442 30.2571 82.2206 29.9673 83.3371 29.3878C84.4621 28.7997 85.3058 27.892 85.8683 26.6648C86.4393 25.429 86.7248 23.8352 86.7248 21.8835C86.7248 19.9489 86.4393 18.3679 85.8683 17.1406C85.3058 15.9134 84.4663 15.0099 83.3498 14.4304C82.2334 13.8509 80.8569 13.5611 79.2206 13.5611H75.6922V30.2571ZM111.52 35V8.81818H121.85C123.827 8.81818 125.514 9.17187 126.912 9.87926C128.318 10.5781 129.388 11.571 130.121 12.858C130.862 14.1364 131.233 15.6406 131.233 17.3707C131.233 19.1094 130.858 20.6051 130.108 21.858C129.358 23.1023 128.272 24.0568 126.848 24.7216C125.433 25.3864 123.72 25.7188 121.709 25.7188H114.793V21.2699H120.814C121.871 21.2699 122.749 21.125 123.448 20.8352C124.147 20.5455 124.666 20.1108 125.007 19.5312C125.357 18.9517 125.531 18.2315 125.531 17.3707C125.531 16.5014 125.357 15.7685 125.007 15.1719C124.666 14.5753 124.142 14.1236 123.435 13.8168C122.736 13.5014 121.854 13.3438 120.789 13.3438H117.056V35H111.52ZM125.659 23.0852L132.166 35H126.056L119.689 23.0852H125.659ZM189.993 8.81818H195.529V25.821C195.529 27.7301 195.073 29.4006 194.161 30.8324C193.257 32.2642 191.992 33.3807 190.364 34.1818C188.736 34.9744 186.84 35.3707 184.675 35.3707C182.502 35.3707 180.601 34.9744 178.973 34.1818C177.345 33.3807 176.08 32.2642 175.176 30.8324C174.273 29.4006 173.821 27.7301 173.821 25.821V8.81818H179.357V25.348C179.357 26.3452 179.574 27.2315 180.009 28.0071C180.452 28.7827 181.074 29.392 181.875 29.8352C182.676 30.2784 183.61 30.5 184.675 30.5C185.749 30.5 186.682 30.2784 187.475 29.8352C188.276 29.392 188.894 28.7827 189.328 28.0071C189.771 27.2315 189.993 26.3452 189.993 25.348V8.81818ZM202.506 13.3821V8.81818H224.009V13.3821H215.993V35H210.521V13.3821H202.506ZM230.97 35V8.81818H248.612V13.3821H236.505V19.6207H247.704V24.1847H236.505V30.4361H248.663V35H230.97Z" fill="#132766"/>
<defs>
<radialGradient id="paint0_radial_42_241" cx="0" cy="0" r="1" gradientUnits="userSpaceOnUse" gradientTransform="translate(151.875 37.875) rotate(90) scale(4.125 13.875)">
<stop stop-color="#8499E7"/>
<stop offset="1" stop-color="#D9D9D9" stop-opacity="0"/>
</radialGradient>
</defs>
</svg>
